<svg xmlns="http://www.w3.org/2000/svg" width="354" height="354" fill="none"><g opacity=".4"><mask id="b" width="354" height="354" x="0" y="0" maskUnits="userSpaceOnUse" style="mask-type:alpha"><path fill="url(#a)" d="M353.14 176.57c0 97.517-79.053 176.57-176.57 176.57S0 274.087 0 176.57 79.053 0 176.57 0s176.57 79.053 176.57 176.57Z" opacity=".9"/></mask><g mask="url(#b)"><mask id="c" fill="#fff"><path d="M-35.492 95.262H2.356v38.409h-37.848v-38.41Z"/></mask><path fill="#EAEAEA" d="M2.356 95.262h.48v-.481h-.48v.48Zm0 38.409v.481h.48v-.481h-.48Zm-37.848-37.928H2.356v-.962h-37.848v.962Zm37.367-.481v38.409h.962v-38.41h-.962Zm.48 37.928h-37.847v.962H2.356v-.962Z" mask="url(#c)"/><mask id="d" fill="#fff"><path d="M2.355 95.262h37.848v38.409H2.355v-38.41Z"/></mask><path fill="#EAEAEA" d="M40.203 95.262h.481v-.481h-.48v.48Zm0 38.409v.481h.481v-.481h-.48ZM2.355 95.743h37.848v-.962H2.355v.962Zm37.367-.481v38.409h.962v-38.41h-.962Zm.481 37.928H2.355v.962h37.848v-.962Z" mask="url(#d)"/><mask id="e" fill="#fff"><path d="M40.203 95.262h37.848v38.409H40.203v-38.41Z"/></mask><path fill="#EAEAEA" d="M78.051 95.262h.481v-.481h-.481v.48Zm0 38.409v.481h.481v-.481h-.481ZM40.203 95.743h37.848v-.962H40.203v.962Zm37.367-.481v38.409h.962v-38.41h-.962Zm.481 37.928H40.203v.962h37.848v-.962Z" mask="url(#e)"/><mask id="f" fill="#fff"><path d="M78.05 95.262H115.9v38.409H78.051v-38.41Z"/></mask><path fill="#EAEAEA" d="M115.899 95.262h.481v-.481h-.481v.48Zm0 38.409v.481h.481v-.481h-.481ZM78.051 95.743h37.848v-.962H78.051v.962Zm37.367-.481v38.409h.962v-38.41h-.962Zm.481 37.928H78.051v.962h37.848v-.962Z" mask="url(#f)"/><mask id="g" fill="#fff"><path d="M115.898 95.262h37.848v38.409h-37.848v-38.41Z"/></mask><path fill="#EAEAEA" d="M153.746 95.262h.481v-.481h-.481v.48Zm0 38.409v.481h.481v-.481h-.481Zm-37.848-37.928h37.848v-.962h-37.848v.962Zm37.367-.481v38.409h.962v-38.41h-.962Zm.481 37.928h-37.848v.962h37.848v-.962Z" mask="url(#g)"/><mask id="h" fill="#fff"><path d="M153.746 95.262h37.848v38.409h-37.848v-38.41Z"/></mask><path fill="#EAEAEA" d="M191.594 95.262h.481v-.481h-.481v.48Zm0 38.409v.481h.481v-.481h-.481Zm-37.848-37.928h37.848v-.962h-37.848v.962Zm37.367-.481v38.409h.962v-38.41h-.962Zm.481 37.928h-37.848v.962h37.848v-.962Z" mask="url(#h)"/><mask id="i" fill="#fff"><path d="M191.594 95.262h37.848v38.409h-37.848v-38.41Z"/></mask><path fill="#EAEAEA" d="M229.442 95.262h.481v-.481h-.481v.48Zm0 38.409v.481h.481v-.481h-.481Zm-37.848-37.928h37.848v-.962h-37.848v.962Zm37.366-.481v38.409h.963v-38.41h-.963Zm.482 37.928h-37.848v.962h37.848v-.962Z" mask="url(#i)"/><mask id="j" fill="#fff"><path d="M229.441 95.262h37.848v38.409h-37.848v-38.41Z"/></mask><path fill="#EAEAEA" d="M267.289 95.262h.481v-.481h-.481v.48Zm0 38.409v.481h.481v-.481h-.481Zm-37.848-37.928h37.848v-.962h-37.848v.962Zm37.367-.481v38.409h.962v-38.41h-.962Zm.481 37.928h-37.848v.962h37.848v-.962Z" mask="url(#j)"/><mask id="k" fill="#fff"><path d="M267.293 95.262h37.848v38.409h-37.848v-38.41Z"/></mask><path fill="#EAEAEA" d="M305.141 95.262h.481v-.481h-.481v.48Zm0 38.409v.481h.481v-.481h-.481Zm-37.848-37.928h37.848v-.962h-37.848v.962Zm37.367-.481v38.409h.962v-38.41h-.962Zm.481 37.928h-37.848v.962h37.848v-.962Z" mask="url(#k)"/><mask id="l" fill="#fff"><path d="M-35.492 133.671H2.356v38.409h-37.848v-38.409Z"/></mask><path fill="#EAEAEA" d="M2.356 172.08v.481h.48v-.481h-.48Zm-.481-38.409v38.409h.962v-38.409h-.962Zm.48 37.928h-37.847v.962H2.356v-.962Z" mask="url(#l)"/><mask id="m" fill="#fff"><path d="M2.355 133.671h37.848v38.409H2.355v-38.409Z"/></mask><path fill="#F2F2F2" d="M2.355 133.671h37.848v38.409H2.355v-38.409Z"/><path fill="#EAEAEA" d="M40.203 172.08v.481h.481v-.481h-.48Zm-.48-38.409v38.409h.961v-38.409h-.962Zm.48 37.928H2.355v.962h37.848v-.962Z" mask="url(#m)"/><mask id="n" fill="#fff"><path d="M40.203 133.671h37.848v38.409H40.203v-38.409Z"/></mask><path fill="#F2F2F2" d="M40.203 133.671h37.848v38.409H40.203v-38.409Z"/><path fill="#EAEAEA" d="M78.051 172.08v.481h.481v-.481h-.481Zm-.481-38.409v38.409h.962v-38.409h-.962Zm.481 37.928H40.203v.962h37.848v-.962Z" mask="url(#n)"/><mask id="o" fill="#fff"><path d="M78.05 133.671H115.9v38.409H78.051v-38.409Z"/></mask><path fill="#F2F2F2" d="M78.05 133.671H115.9v38.409H78.051v-38.409Z"/><path fill="#EAEAEA" d="M115.899 172.08v.481h.481v-.481h-.481Zm-.481-38.409v38.409h.962v-38.409h-.962Zm.481 37.928H78.051v.962h37.848v-.962Z" mask="url(#o)"/><mask id="p" fill="#fff"><path d="M115.898 133.671h37.848v38.409h-37.848v-38.409Z"/></mask><path fill="#EAEAEA" d="M153.746 172.08v.481h.481v-.481h-.481Zm-.481-38.409v38.409h.962v-38.409h-.962Zm.481 37.928h-37.848v.962h37.848v-.962Z" mask="url(#p)"/><mask id="q" fill="#fff"><path d="M153.746 133.671h37.848v38.409h-37.848v-38.409Z"/></mask><path fill="#EAEAEA" d="M191.594 172.08v.481h.481v-.481h-.481Zm-.481-38.409v38.409h.962v-38.409h-.962Zm.481 37.928h-37.848v.962h37.848v-.962Z" mask="url(#q)"/><mask id="r" fill="#fff"><path d="M191.594 133.671h37.848v38.409h-37.848v-38.409Z"/></mask><path fill="#EAEAEA" d="M229.442 172.08v.481h.481v-.481h-.481Zm-.482-38.409v38.409h.963v-38.409h-.963Zm.482 37.928h-37.848v.962h37.848v-.962Z" mask="url(#r)"/><mask id="s" fill="#fff"><path d="M229.441 133.671h37.848v38.409h-37.848v-38.409Z"/></mask><path fill="#EAEAEA" d="M267.289 172.08v.481h.481v-.481h-.481Zm-.481-38.409v38.409h.962v-38.409h-.962Zm.481 37.928h-37.848v.962h37.848v-.962Z" mask="url(#s)"/><mask id="t" fill="#fff"><path d="M267.293 133.671h37.848v38.409h-37.848v-38.409Z"/></mask><path fill="#EAEAEA" d="M305.141 172.08v.481h.481v-.481h-.481Zm-.481-38.409v38.409h.962v-38.409h-.962Zm.481 37.928h-37.848v.962h37.848v-.962Z" mask="url(#t)"/><mask id="u" fill="#fff"><path d="M-35.492 172.08H2.356v38.409h-37.848V172.08Z"/></mask><path fill="#EAEAEA" d="M2.356 210.489v.481h.48v-.481h-.48Zm-.481-38.409v38.409h.962V172.08h-.962Zm.48 37.928h-37.847v.962H2.356v-.962Z" mask="url(#u)"/><mask id="v" fill="#fff"><path d="M2.355 172.08h37.848v38.409H2.355V172.08Z"/></mask><path fill="#EAEAEA" d="M40.203 210.489v.481h.481v-.481h-.48Zm-.48-38.409v38.409h.961V172.08h-.962Zm.48 37.928H2.355v.962h37.848v-.962Z" mask="url(#v)"/><mask id="w" fill="#fff"><path d="M40.203 172.08h37.848v38.409H40.203V172.08Z"/></mask><path fill="#EAEAEA" d="M78.051 210.489v.481h.481v-.481h-.481Zm-.481-38.409v38.409h.962V172.08h-.962Zm.481 37.928H40.203v.962h37.848v-.962Z" mask="url(#w)"/><mask id="x" fill="#fff"><path d="M78.05 172.08H115.9v38.409H78.051V172.08Z"/></mask><path fill="#EAEAEA" d="M115.899 210.489v.481h.481v-.481h-.481Zm-.481-38.409v38.409h.962V172.08h-.962Zm.481 37.928H78.051v.962h37.848v-.962Z" mask="url(#x)"/><mask id="y" fill="#fff"><path d="M115.898 172.08h37.848v38.409h-37.848V172.08Z"/></mask><path fill="#F2F2F2" d="M115.898 172.08h37.848v38.409h-37.848V172.08Z"/><path fill="#EAEAEA" d="M153.746 210.489v.481h.481v-.481h-.481Zm-.481-38.409v38.409h.962V172.08h-.962Zm.481 37.928h-37.848v.962h37.848v-.962Z" mask="url(#y)"/><mask id="z" fill="#fff"><path d="M153.746 172.08h37.848v38.409h-37.848V172.08Z"/></mask><path fill="#EAEAEA" d="M191.594 210.489v.481h.481v-.481h-.481Zm-.481-38.409v38.409h.962V172.08h-.962Zm.481 37.928h-37.848v.962h37.848v-.962Z" mask="url(#z)"/><mask id="A" fill="#fff"><path d="M191.594 172.08h37.848v38.409h-37.848V172.08Z"/></mask><path fill="#EAEAEA" d="M229.442 210.489v.481h.481v-.481h-.481Zm-.482-38.409v38.409h.963V172.08h-.963Zm.482 37.928h-37.848v.962h37.848v-.962Z" mask="url(#A)"/><mask id="B" fill="#fff"><path d="M229.441 172.08h37.848v38.409h-37.848V172.08Z"/></mask><path fill="#EAEAEA" d="M267.289 210.489v.481h.481v-.481h-.481Zm-.481-38.409v38.409h.962V172.08h-.962Zm.481 37.928h-37.848v.962h37.848v-.962Z" mask="url(#B)"/><mask id="C" fill="#fff"><path d="M267.293 172.08h37.848v38.409h-37.848V172.08Z"/></mask><path fill="#EAEAEA" d="M305.141 210.489v.481h.481v-.481h-.481Zm-.481-38.409v38.409h.962V172.08h-.962Zm.481 37.928h-37.848v.962h37.848v-.962Z" mask="url(#C)"/><mask id="D" fill="#fff"><path d="M-35.492 210.489H2.356v38.409h-37.848v-38.409Z"/></mask><path fill="#F2F2F2" d="M-35.492 210.489H2.356v38.409h-37.848v-38.409Z"/><path fill="#EAEAEA" d="M2.356 248.898v.481h.48v-.481h-.48Zm-.481-38.409v38.409h.962v-38.409h-.962Zm.48 37.928h-37.847v.962H2.356v-.962Z" mask="url(#D)"/><mask id="E" fill="#fff"><path d="M2.355 210.489h37.848v38.409H2.355v-38.409Z"/></mask><path fill="#EAEAEA" d="M40.203 248.898v.481h.481v-.481h-.48Zm-.48-38.409v38.409h.961v-38.409h-.962Zm.48 37.928H2.355v.962h37.848v-.962Z" mask="url(#E)"/><mask id="F" fill="#fff"><path d="M40.203 210.489h37.848v38.409H40.203v-38.409Z"/></mask><path fill="#EAEAEA" d="M78.051 248.898v.481h.481v-.481h-.481Zm-.481-38.409v38.409h.962v-38.409h-.962Zm.481 37.928H40.203v.962h37.848v-.962Z" mask="url(#F)"/><mask id="G" fill="#fff"><path d="M78.05 210.489H115.9v38.409H78.051v-38.409Z"/></mask><path fill="#EAEAEA" d="M115.899 248.898v.481h.481v-.481h-.481Zm-.481-38.409v38.409h.962v-38.409h-.962Zm.481 37.928H78.051v.962h37.848v-.962Z" mask="url(#G)"/><mask id="H" fill="#fff"><path d="M115.898 210.489h37.848v38.409h-37.848v-38.409Z"/></mask><path fill="#EAEAEA" d="M153.746 248.898v.481h.481v-.481h-.481Zm-.481-38.409v38.409h.962v-38.409h-.962Zm.481 37.928h-37.848v.962h37.848v-.962Z" mask="url(#H)"/><mask id="I" fill="#fff"><path d="M153.746 210.489h37.848v38.409h-37.848v-38.409Z"/></mask><path fill="#F2F2F2" d="M153.746 210.489h37.848v38.409h-37.848v-38.409Z"/><path fill="#EAEAEA" d="M191.594 248.898v.481h.481v-.481h-.481Zm-.481-38.409v38.409h.962v-38.409h-.962Zm.481 37.928h-37.848v.962h37.848v-.962Z" mask="url(#I)"/><mask id="J" fill="#fff"><path d="M191.594 210.489h37.848v38.409h-37.848v-38.409Z"/></mask><path fill="#EAEAEA" d="M229.442 248.898v.481h.481v-.481h-.481Zm-.482-38.409v38.409h.963v-38.409h-.963Zm.482 37.928h-37.848v.962h37.848v-.962Z" mask="url(#J)"/><mask id="K" fill="#fff"><path d="M229.441 210.489h37.848v38.409h-37.848v-38.409Z"/></mask><path fill="#EAEAEA" d="M267.289 248.898v.481h.481v-.481h-.481Zm-.481-38.409v38.409h.962v-38.409h-.962Zm.481 37.928h-37.848v.962h37.848v-.962Z" mask="url(#K)"/><mask id="L" fill="#fff"><path d="M267.293 210.489h37.848v38.409h-37.848v-38.409Z"/></mask><path fill="#EAEAEA" d="M305.141 248.898v.481h.481v-.481h-.481Zm-.481-38.409v38.409h.962v-38.409h-.962Zm.481 37.928h-37.848v.962h37.848v-.962Z" mask="url(#L)"/><mask id="M" fill="#fff"><path d="M-35.492 248.898H2.356v38.409h-37.848v-38.409Z"/></mask><path fill="#EAEAEA" d="M2.356 287.307v.481h.48v-.481h-.48Zm-.481-38.409v38.409h.962v-38.409h-.962Zm.48 37.928h-37.847v.962H2.356v-.962Z" mask="url(#M)"/><mask id="N" fill="#fff"><path d="M2.355 248.898h37.848v38.409H2.355v-38.409Z"/></mask><path fill="#EAEAEA" d="M40.203 287.307v.481h.481v-.481h-.48Zm-.48-38.409v38.409h.961v-38.409h-.962Zm.48 37.928H2.355v.962h37.848v-.962Z" mask="url(#N)"/><mask id="O" fill="#fff"><path d="M40.203 248.898h37.848v38.409H40.203v-38.409Z"/></mask><path fill="#F2F2F2" d="M40.203 248.898h37.848v38.409H40.203v-38.409Z"/><path fill="#EAEAEA" d="M78.051 287.307v.481h.481v-.481h-.481Zm-.481-38.409v38.409h.962v-38.409h-.962Zm.481 37.928H40.203v.962h37.848v-.962Z" mask="url(#O)"/><mask id="P" fill="#fff"><path d="M78.05 248.898H115.9v38.409H78.051v-38.409Z"/></mask><path fill="#EAEAEA" d="M115.899 287.307v.481h.481v-.481h-.481Zm-.481-38.409v38.409h.962v-38.409h-.962Zm.481 37.928H78.051v.962h37.848v-.962Z" mask="url(#P)"/><mask id="Q" fill="#fff"><path d="M115.898 248.898h37.848v38.409h-37.848v-38.409Z"/></mask><path fill="#EAEAEA" d="M153.746 287.307v.481h.481v-.481h-.481Zm-.481-38.409v38.409h.962v-38.409h-.962Zm.481 37.928h-37.848v.962h37.848v-.962Z" mask="url(#Q)"/><mask id="R" fill="#fff"><path d="M153.746 248.898h37.848v38.409h-37.848v-38.409Z"/></mask><path fill="#EAEAEA" d="M191.594 287.307v.481h.481v-.481h-.481Zm-.481-38.409v38.409h.962v-38.409h-.962Zm.481 37.928h-37.848v.962h37.848v-.962Z" mask="url(#R)"/><mask id="S" fill="#fff"><path d="M191.594 248.898h37.848v38.409h-37.848v-38.409Z"/></mask><path fill="#EAEAEA" d="M229.442 287.307v.481h.481v-.481h-.481Zm-.482-38.409v38.409h.963v-38.409h-.963Zm.482 37.928h-37.848v.962h37.848v-.962Z" mask="url(#S)"/><mask id="T" fill="#fff"><path d="M229.441 248.898h37.848v38.409h-37.848v-38.409Z"/></mask><path fill="#EAEAEA" d="M267.289 287.307v.481h.481v-.481h-.481Zm-.481-38.409v38.409h.962v-38.409h-.962Zm.481 37.928h-37.848v.962h37.848v-.962Z" mask="url(#T)"/><mask id="U" fill="#fff"><path d="M267.293 248.898h37.848v38.409h-37.848v-38.409Z"/></mask><path fill="#EAEAEA" d="M305.141 287.307v.481h.481v-.481h-.481Zm-.481-38.409v38.409h.962v-38.409h-.962Zm.481 37.928h-37.848v.962h37.848v-.962Z" mask="url(#U)"/><mask id="V" fill="#fff"><path d="M-35.492 287.307H2.356v38.41h-37.848v-38.41Z"/></mask><path fill="#EAEAEA" d="M2.356 325.717v.481h.48v-.481h-.48Zm-.481-38.41v38.41h.962v-38.41h-.962Zm.48 37.928h-37.847v.963H2.356v-.963Z" mask="url(#V)"/><mask id="W" fill="#fff"><path d="M2.355 287.307h37.848v38.41H2.355v-38.41Z"/></mask><path fill="#F2F2F2" d="M2.355 287.307h37.848v38.41H2.355v-38.41Z"/><path fill="#EAEAEA" d="M40.203 325.717v.481h.481v-.481h-.48Zm-.48-38.41v38.41h.961v-38.41h-.962Zm.48 37.928H2.355v.963h37.848v-.963Z" mask="url(#W)"/><mask id="X" fill="#fff"><path d="M40.203 287.307h37.848v38.41H40.203v-38.41Z"/></mask><path fill="#EAEAEA" d="M78.051 325.717v.481h.481v-.481h-.481Zm-.481-38.41v38.41h.962v-38.41h-.962Zm.481 37.928H40.203v.963h37.848v-.963Z" mask="url(#X)"/><mask id="Y" fill="#fff"><path d="M78.05 287.307H115.9v38.41H78.051v-38.41Z"/></mask><path fill="#EAEAEA" d="M115.899 325.717v.481h.481v-.481h-.481Zm-.481-38.41v38.41h.962v-38.41h-.962Zm.481 37.928H78.051v.963h37.848v-.963Z" mask="url(#Y)"/><mask id="Z" fill="#fff"><path d="M115.898 287.307h37.848v38.41h-37.848v-38.41Z"/></mask><path fill="#F2F2F2" d="M115.898 287.307h37.848v38.41h-37.848v-38.41Z"/><path fill="#EAEAEA" d="M153.746 325.717v.481h.481v-.481h-.481Zm-.481-38.41v38.41h.962v-38.41h-.962Zm.481 37.928h-37.848v.963h37.848v-.963Z" mask="url(#Z)"/><mask id="aa" fill="#fff"><path d="M153.746 287.307h37.848v38.41h-37.848v-38.41Z"/></mask><path fill="#EAEAEA" d="M191.594 325.717v.481h.481v-.481h-.481Zm-.481-38.41v38.41h.962v-38.41h-.962Zm.481 37.928h-37.848v.963h37.848v-.963Z" mask="url(#aa)"/><mask id="ab" fill="#fff"><path d="M191.594 287.307h37.848v38.41h-37.848v-38.41Z"/></mask><path fill="#EAEAEA" d="M229.442 325.717v.481h.481v-.481h-.481Zm-.482-38.41v38.41h.963v-38.41h-.963Zm.482 37.928h-37.848v.963h37.848v-.963Z" mask="url(#ab)"/><mask id="ac" fill="#fff"><path d="M229.441 287.307h37.848v38.41h-37.848v-38.41Z"/></mask><path fill="#EAEAEA" d="M267.289 325.717v.481h.481v-.481h-.481Zm-.481-38.41v38.41h.962v-38.41h-.962Zm.481 37.928h-37.848v.963h37.848v-.963Z" mask="url(#ac)"/><mask id="ad" fill="#fff"><path d="M267.293 287.307h37.848v38.41h-37.848v-38.41Z"/></mask><path fill="#EAEAEA" d="M305.141 325.717v.481h.481v-.481h-.481Zm-.481-38.41v38.41h.962v-38.41h-.962Zm.481 37.928h-37.848v.963h37.848v-.963Z" mask="url(#ad)"/></g></g><defs><radialGradient id="a" cx="0" cy="0" r="1" gradientTransform="rotate(90 0 176.57) scale(176.57)" gradientUnits="userSpaceOnUse"><stop stop-color="#737373"/><stop offset="1" stop-color="#D9D9D9" stop-opacity="0"/></radialGradient></defs></svg>