<svg width="150" height="105" viewBox="0 0 150 105" fill="none" xmlns="http://www.w3.org/2000/svg">
<path fill-rule="evenodd" clip-rule="evenodd" d="M143.032 23.9091C141.389 17.6202 139.868 10.9626 138.712 4.54807C138.006 5.45684 137.263 6.38914 136.527 7.31173L136.527 7.31188C135.747 8.29065 134.975 9.25848 134.267 10.1757C130.84 14.6099 128.244 19.3316 125.565 24.2031L125.565 24.2036C124.333 26.4438 123.084 28.7157 121.728 31.0058C121.306 31.7188 120.386 31.9546 119.674 31.5327C118.961 31.1108 118.725 30.1908 119.147 29.4779C120.398 27.3637 121.595 25.1884 122.801 22.9966L122.801 22.9965L122.801 22.9964C125.538 18.0225 128.321 12.9637 131.893 8.34136C132.699 7.29797 133.47 6.33223 134.233 5.37677L134.234 5.37607C135.114 4.27338 135.983 3.18438 136.883 2.00552C137.301 1.45803 137.768 0.927106 138.293 0.624655C138.579 0.459885 139.015 0.285547 139.541 0.349278C140.101 0.417166 140.501 0.721492 140.747 1.01505C141.147 1.49122 141.3 2.12864 141.379 2.47674C141.449 2.78935 141.514 3.16321 141.576 3.51895L141.576 3.51987C141.597 3.63865 141.617 3.75541 141.637 3.86717C142.781 10.2366 144.294 16.8718 145.935 23.1505C146.027 23.5031 146.118 23.8561 146.21 24.2088L146.213 24.2222L146.213 24.2225C147.019 27.3371 147.819 30.43 149.149 33.09C149.519 33.8309 149.219 34.7319 148.478 35.1024C147.737 35.4729 146.836 35.1726 146.465 34.4316C144.984 31.4677 144.102 28.0515 143.311 24.9841C143.217 24.6204 143.125 24.2616 143.032 23.9091ZM138.362 2.81605C138.36 2.81138 138.359 2.80884 138.359 2.80873C138.359 2.80863 138.36 2.81096 138.362 2.81605ZM137.376 22.1585C137.512 21.3413 136.96 20.5685 136.143 20.4323C135.326 20.2961 134.553 20.8481 134.416 21.6653C134.313 22.2862 134.21 22.9093 134.106 23.5342C132.109 35.5616 130 48.258 125.435 59.2005C120.423 71.2108 112.269 80.5179 99.0754 81.1061C96.6862 81.2126 93.586 81.1104 90.3516 80.66C91.1674 79.0635 91.8319 77.3192 92.3193 75.4116C93.3763 71.2743 93.4906 66.3229 92.1109 61.9676C90.7195 57.5748 87.7666 53.7029 82.6917 52.0758C80.3903 51.3379 78.3049 52.1878 76.6721 53.5937C75.0631 54.9791 73.7282 57.0227 72.701 59.1615C71.6649 61.3191 70.8886 63.6854 70.451 65.8197C70.0268 67.8892 69.8725 69.9691 70.2892 71.4436C71.906 77.1646 77.3527 80.3714 82.9578 82.1104C83.7695 82.3622 84.5945 82.5867 85.4249 82.7858C82.2795 86.733 77.8133 89.441 72.6803 91.393C65.3272 94.1892 56.8372 95.3456 49.3208 96.3694C48.5235 96.478 47.7371 96.5852 46.9643 96.6926C32.1078 98.7574 17.0053 100.672 2.07689 101.307C1.24921 101.342 0.606799 102.042 0.64202 102.87C0.67724 103.697 1.37676 104.34 2.20444 104.305C17.287 103.663 32.5115 101.73 47.3772 99.664C48.148 99.5569 48.9379 99.4495 49.7439 99.34L49.7442 99.3399C57.209 98.3254 66.0504 97.1238 73.7466 94.1971C79.6862 91.9384 85.0774 88.6013 88.6814 83.4404C92.579 84.0827 96.3642 84.23 99.2091 84.1031C114.099 83.4393 122.996 72.8353 128.203 60.3557C132.908 49.0804 135.068 36.0647 137.048 24.1297C137.158 23.4691 137.267 22.8119 137.376 22.1585ZM89.4126 74.669C88.8995 76.6777 88.1624 78.4863 87.2328 80.1179C86.0897 79.8772 84.9528 79.5883 83.8468 79.2451C78.5055 77.588 74.3628 74.8268 73.1761 70.6277C72.9631 69.8741 72.9874 68.3859 73.3899 66.4222C73.7792 64.5232 74.4781 62.3912 75.4053 60.4602C76.3417 58.5105 77.4585 56.8754 78.6296 55.867C79.7771 54.879 80.8002 54.6198 81.7758 54.9325C85.7171 56.1962 88.0804 59.178 89.251 62.8735C90.4334 66.6064 90.3557 70.9777 89.4126 74.669Z" fill="#EB3301"/>
</svg>
